<svg width="16" height="16" viewBox="0 0 16 16" fill="none" xmlns="http://www.w3.org/2000/svg">
<path fill-rule="evenodd" clip-rule="evenodd" d="M7.49294 0.0149765L7.10694 0.0549765C5.23394 0.241976 3.34694 1.20798 2.07094 2.63398C0.65994 4.21098 -0.0570602 6.16798 0.00893984 8.25298C0.12394 11.854 2.59894 14.903 6.10994 15.771C7.14364 16.0208 8.21668 16.0628 9.26675 15.8946C10.3168 15.7264 11.323 15.3512 12.2269 14.791C14.0047 13.6833 15.2772 11.9226 15.7709 9.88698C15.9429 9.18598 15.9829 8.82898 15.9829 7.99998C15.9829 7.17098 15.9429 6.81398 15.7709 6.11298C14.9789 2.87798 12.3149 0.497976 8.99994 0.0639765C8.71594 0.0269765 7.68294 -0.00602354 7.49294 0.0149765ZM8.85294 1.56298C9.97644 1.70999 11.042 2.14814 11.9439 2.83398C12.2729 3.07998 12.9199 3.72698 13.1659 4.05598C13.7269 4.80698 14.1419 5.68998 14.3299 6.53498C14.5429 7.50004 14.5429 8.49991 14.3299 9.46498C13.9159 11.326 12.6049 12.978 10.8669 13.828C10.2401 14.134 9.56995 14.3418 8.87994 14.444C8.45594 14.509 7.54394 14.509 7.11994 14.444C5.17194 14.148 3.52794 13.085 2.49294 11.451C2.23835 11.0289 2.02599 10.5827 1.85894 10.119C1.62159 9.43808 1.50484 8.721 1.51394 7.99998C1.51394 6.96098 1.71494 6.07498 2.15994 5.15998C2.49994 4.46198 2.84594 3.97998 3.41294 3.41298C3.91509 2.89354 4.50692 2.46906 5.15994 2.15998C6.30493 1.60052 7.58999 1.39278 8.85294 1.56298ZM7.70594 4.28998C7.48194 4.36298 7.35494 4.49098 7.29294 4.70498C7.25694 4.82698 7.25294 5.10598 7.25894 6.81598C7.26694 8.78598 7.26694 8.78698 7.32494 8.89598C7.40198 9.03493 7.52399 9.14355 7.67094 9.20398C7.80294 9.24998 8.19694 9.24998 8.32894 9.20398C8.47589 9.14355 8.5979 9.03493 8.67494 8.89598C8.73294 8.78698 8.73294 8.78598 8.74094 6.81598C8.74894 4.66398 8.74894 4.66198 8.59594 4.48098C8.47194 4.33298 8.33894 4.28398 8.03994 4.27598C7.92842 4.26966 7.81654 4.27435 7.70594 4.28998ZM7.78594 10.53C7.58596 10.6017 7.41961 10.7449 7.31894 10.932C7.24683 11.1113 7.23801 11.3099 7.29394 11.495C7.34835 11.6396 7.44451 11.7648 7.5702 11.8548C7.6959 11.9447 7.84547 11.9952 7.99994 12C8.30294 12 8.61194 11.78 8.70594 11.495C8.76187 11.3099 8.75305 11.1113 8.68094 10.932C8.59808 10.786 8.47801 10.6645 8.33294 10.58C8.21694 10.52 7.90394 10.491 7.78594 10.53Z" fill="#E56B6F"/>
</svg>
